HIERARCHY
ROOT Hips
{
	OFFSET 0.000000 0.000000 0.000000
	CHANNELS 6 Xposition Yposition Zposition Zrotation Yrotation Xrotation 
	JOINT Spine
	{
		OFFSET 0.000000 10.181600 0.131500
		CHANNELS 3 Zrotation Yrotation Xrotation
		JOINT Spine1
		{
			OFFSET 0.000000 10.083500 -1.000800
			CHANNELS 3 Zrotation Yrotation Xrotation
			JOINT Spine2
			{
				OFFSET 0.000000 9.100000 -1.373400
				CHANNELS 3 Zrotation Yrotation Xrotation
				JOINT Neck
				{
					OFFSET 0.000000 16.671700 -2.516200
					CHANNELS 3 Zrotation Yrotation Xrotation
					JOINT Head
					{
						OFFSET -0.000000 9.617900 1.685000
						CHANNELS 3 Zrotation Yrotation Xrotation
						JOINT HeadTop_End
						{
							OFFSET -0.000000 17.815200 2.585000
							CHANNELS 3 Zrotation Yrotation Xrotation
							End Site
							{
								OFFSET 0.000000 0.000000 0.000000
							}
						}
						JOINT LeftEye
						{
							OFFSET 3.067600 6.409500 9.283600
							CHANNELS 3 Zrotation Yrotation Xrotation
							End Site
							{
								OFFSET 0.000000 0.000000 0.000000
							}
						}
						JOINT RightEye
						{
							OFFSET -3.067600 6.409500 9.283500
							CHANNELS 3 Zrotation Yrotation Xrotation
							End Site
							{
								OFFSET 0.000000 0.000000 0.000000
							}
						}
					}
				}
				JOINT LeftShoulder
				{
					OFFSET 4.570400 10.946000 -2.628000
					CHANNELS 3 Zrotation Yrotation Xrotation
					JOINT LeftArm
					{
						OFFSET 10.592400 -0.524600 -2.232100
						CHANNELS 3 Zrotation Yrotation Xrotation
						JOINT LeftForeArm
						{
							OFFSET 27.841500 -0.000100 0.000000
							CHANNELS 3 Zrotation Yrotation Xrotation
							JOINT LeftHand
							{
								OFFSET 28.328800 -0.000000 0.000000
								CHANNELS 3 Zrotation Yrotation Xrotation
								JOINT LeftHandThumb1
								{
									OFFSET 2.466100 -1.575000 2.682400
									CHANNELS 3 Zrotation Yrotation Xrotation
									JOINT LeftHandThumb2
									{
										OFFSET 3.229800 -1.864700 1.864700
										CHANNELS 3 Zrotation Yrotation Xrotation
										JOINT LeftHandThumb3
										{
											OFFSET 2.652600 -1.531500 1.531500
											CHANNELS 3 Zrotation Yrotation Xrotation
											JOINT LeftHandThumb4
											{
												OFFSET 1.954600 -1.128500 1.128500
												CHANNELS 3 Zrotation Yrotation Xrotation
												End Site
												{
													OFFSET 0.000000 0.000000 0.000000
												}
											}
										}
									}
								}
								JOINT LeftHandIndex1
								{
									OFFSET 9.109300 -0.517100 2.260100
									CHANNELS 3 Zrotation Yrotation Xrotation
									JOINT LeftHandIndex2
									{
										OFFSET 3.676400 -0.000000 0.000000
										CHANNELS 3 Zrotation Yrotation Xrotation
										JOINT LeftHandIndex3
										{
											OFFSET 2.883100 0.000000 -0.000000
											CHANNELS 3 Zrotation Yrotation Xrotation
											JOINT LeftHandIndex4
											{
												OFFSET 2.392700 0.000000 0.000000
												CHANNELS 3 Zrotation Yrotation Xrotation
												End Site
												{
													OFFSET 0.000000 0.000000 0.000000
												}
											}
										}
									}
								}
								JOINT LeftHandMiddle1
								{
									OFFSET 9.533400 -0.000000 0.000000
									CHANNELS 3 Zrotation Yrotation Xrotation
									JOINT LeftHandMiddle2
									{
										OFFSET 3.698200 0.000000 0.000000
										CHANNELS 3 Zrotation Yrotation Xrotation
										JOINT LeftHandMiddle3
										{
											OFFSET 2.950900 -0.000000 0.000000
											CHANNELS 3 Zrotation Yrotation Xrotation
											JOINT LeftHandMiddle4
											{
												OFFSET 2.833900 -0.000000 -0.000000
												CHANNELS 3 Zrotation Yrotation Xrotation
												End Site
												{
													OFFSET 0.000000 0.000000 0.000000
												}
											}
										}
									}
								}
								JOINT LeftHandRing1
								{
									OFFSET 9.104500 -0.043900 -1.865100
									CHANNELS 3 Zrotation Yrotation Xrotation
									JOINT LeftHandRing2
									{
										OFFSET 3.154000 -0.000000 0.000000
										CHANNELS 3 Zrotation Yrotation Xrotation
										JOINT LeftHandRing3
										{
											OFFSET 2.937700 -0.000000 -0.000000
											CHANNELS 3 Zrotation Yrotation Xrotation
											JOINT LeftHandRing4
											{
												OFFSET 2.647500 -0.000000 0.000000
												CHANNELS 3 Zrotation Yrotation Xrotation
												End Site
												{
													OFFSET 0.000000 0.000000 0.000000
												}
											}
										}
									}
								}
								JOINT LeftHandPinky1
								{
									OFFSET 8.077800 -0.488700 -3.806100
									CHANNELS 3 Zrotation Yrotation Xrotation
									JOINT LeftHandPinky2
									{
										OFFSET 3.600000 -0.000000 -0.000000
										CHANNELS 3 Zrotation Yrotation Xrotation
										JOINT LeftHandPinky3
										{
											OFFSET 2.114200 0.000000 -0.000000
											CHANNELS 3 Zrotation Yrotation Xrotation
											JOINT LeftHandPinky4
											{
												OFFSET 1.975700 0.000000 -0.000000
												CHANNELS 3 Zrotation Yrotation Xrotation
												End Site
												{
													OFFSET 0.000000 0.000000 0.000000
												}
											}
										}
									}
								}
							}
						}
					}
				}
				JOINT RightShoulder
				{
					OFFSET -4.570000 10.946200 -2.628000
					CHANNELS 3 Zrotation Yrotation Xrotation
					JOINT RightArm
					{
						OFFSET -10.592800 -0.524800 -2.232100
						CHANNELS 3 Zrotation Yrotation Xrotation
						JOINT RightForeArm
						{
							OFFSET -27.841500 -0.000000 0.000000
							CHANNELS 3 Zrotation Yrotation Xrotation
							JOINT RightHand
							{
								OFFSET -28.328800 -0.000000 0.000100
								CHANNELS 3 Zrotation Yrotation Xrotation
								JOINT RightHandPinky1
								{
									OFFSET -8.076700 -0.488500 -3.806000
									CHANNELS 3 Zrotation Yrotation Xrotation
									JOINT RightHandPinky2
									{
										OFFSET -3.600000 0.000000 0.000100
										CHANNELS 3 Zrotation Yrotation Xrotation
										JOINT RightHandPinky3
										{
											OFFSET -2.114200 0.000000 0.000000
											CHANNELS 3 Zrotation Yrotation Xrotation
											JOINT RightHandPinky4
											{
												OFFSET -1.975700 -0.000000 -0.000000
												CHANNELS 3 Zrotation Yrotation Xrotation
												End Site
												{
													OFFSET 0.000000 0.000000 0.000000
												}
											}
										}
									}
								}
								JOINT RightHandRing1
								{
									OFFSET -9.103600 -0.043900 -1.865100
									CHANNELS 3 Zrotation Yrotation Xrotation
									JOINT RightHandRing2
									{
										OFFSET -3.154000 0.000000 0.000000
										CHANNELS 3 Zrotation Yrotation Xrotation
										JOINT RightHandRing3
										{
											OFFSET -2.937700 -0.000000 -0.000000
											CHANNELS 3 Zrotation Yrotation Xrotation
											JOINT RightHandRing4
											{
												OFFSET -2.647500 0.000000 -0.000000
												CHANNELS 3 Zrotation Yrotation Xrotation
												End Site
												{
													OFFSET 0.000000 0.000000 0.000000
												}
											}
										}
									}
								}
								JOINT RightHandMiddle1
								{
									OFFSET -9.532500 -0.000000 0.000000
									CHANNELS 3 Zrotation Yrotation Xrotation
									JOINT RightHandMiddle2
									{
										OFFSET -3.698200 0.000000 -0.000000
										CHANNELS 3 Zrotation Yrotation Xrotation
										JOINT RightHandMiddle3
										{
											OFFSET -2.950900 -0.000000 -0.000000
											CHANNELS 3 Zrotation Yrotation Xrotation
											JOINT RightHandMiddle4
											{
												OFFSET -2.833900 0.000000 0.000100
												CHANNELS 3 Zrotation Yrotation Xrotation
												End Site
												{
													OFFSET 0.000000 0.000000 0.000000
												}
											}
										}
									}
								}
								JOINT RightHandIndex1
								{
									OFFSET -9.108300 -0.516800 2.260100
									CHANNELS 3 Zrotation Yrotation Xrotation
									JOINT RightHandIndex2
									{
										OFFSET -3.676400 0.000000 0.000000
										CHANNELS 3 Zrotation Yrotation Xrotation
										JOINT RightHandIndex3
										{
											OFFSET -2.883100 -0.000000 0.000000
											CHANNELS 3 Zrotation Yrotation Xrotation
											JOINT RightHandIndex4
											{
												OFFSET -2.392700 0.000000 0.000000
												CHANNELS 3 Zrotation Yrotation Xrotation
												End Site
												{
													OFFSET 0.000000 0.000000 0.000000
												}
											}
										}
									}
								}
								JOINT RightHandThumb1
								{
									OFFSET -2.464800 -1.572700 2.682600
									CHANNELS 3 Zrotation Yrotation Xrotation
									JOINT RightHandThumb2
									{
										OFFSET -3.229800 -1.864700 1.864700
										CHANNELS 3 Zrotation Yrotation Xrotation
										JOINT RightHandThumb3
										{
											OFFSET -2.652600 -1.531400 1.531400
											CHANNELS 3 Zrotation Yrotation Xrotation
											JOINT RightHandThumb4
											{
												OFFSET -1.954600 -1.128500 1.128500
												CHANNELS 3 Zrotation Yrotation Xrotation
												End Site
												{
													OFFSET 0.000000 0.000000 0.000000
												}
											}
										}
									}
								}
							}
						}
					}
				}
			}
		}
	}
	JOINT LeftUpLeg
	{
		OFFSET 8.207800 -6.751700 -1.599600
		CHANNELS 3 Zrotation Yrotation Xrotation
		JOINT LeftLeg
		{
			OFFSET -0.000000 -44.370500 0.284600
			CHANNELS 3 Zrotation Yrotation Xrotation
			JOINT LeftFoot
			{
				OFFSET 0.000000 -44.427900 -2.982200
				CHANNELS 3 Zrotation Yrotation Xrotation
				JOINT LeftToeBase
				{
					OFFSET -0.000000 -8.728700 10.710600
					CHANNELS 3 Zrotation Yrotation Xrotation
					JOINT LeftToe_End
					{
						OFFSET -0.000000 -0.000700 9.278100
						CHANNELS 3 Zrotation Yrotation Xrotation
						End Site
						{
							OFFSET 0.000000 0.000000 0.000000
						}
					}
				}
			}
		}
	}
	JOINT RightUpLeg
	{
		OFFSET -8.207800 -6.751700 -1.599600
		CHANNELS 3 Zrotation Yrotation Xrotation
		JOINT RightLeg
		{
			OFFSET 0.000000 -44.370500 0.286200
			CHANNELS 3 Zrotation Yrotation Xrotation
			JOINT RightFoot
			{
				OFFSET 0.000000 -44.427700 -2.983800
				CHANNELS 3 Zrotation Yrotation Xrotation
				JOINT RightToeBase
				{
					OFFSET -0.000000 -8.728700 10.710600
					CHANNELS 3 Zrotation Yrotation Xrotation
					JOINT RightToe_End
					{
						OFFSET -0.000000 -0.000700 9.278100
						CHANNELS 3 Zrotation Yrotation Xrotation
						End Site
						{
							OFFSET 0.000000 0.000000 0.000000
						}
					}
				}
			}
		}
	}
}
MOTION
Frames: 4
Frame Time: 0.033333
-0.661165 103.683281 2.130116 0.978383 -5.652254 -3.171479 -0.358381 2.089434 1.613913 -1.414446 4.195260 3.095757 -1.388585 4.195239 3.106725 1.680973 -0.832440 -3.273249 1.112370 -2.415387 -5.745717 0.000000 0.000000 0.000000 0.000000 0.000000 0.000000 0.000000 0.000000 0.000000 -11.197247 0.520504 0.673623 -67.059921 -4.483842 -15.480989 -0.000222 -31.692062 -0.000001 -9.336827 -1.001621 38.872303 1.095281 14.287377 -1.346910 3.396212 19.279011 5.723869 3.120198 7.331206 0.348599 0.000000 0.000000 0.000000 -13.766045 1.638677 -0.197825 -11.769330 1.404726 -0.144782 -9.967754 1.192126 -0.103966 0.000000 0.000000 0.000000 -13.750050 1.636804 -0.197365 -11.785348 1.406606 -0.145180 -9.967750 1.192129 -0.103963 0.000000 0.000000 0.000000 -13.766045 1.638677 -0.197825 -11.769330 1.404726 -0.144782 -9.967754 1.192126 -0.103966 0.000000 0.000000 0.000000 -13.269635 5.694829 -0.166061 -12.286460 -2.560857 0.700007 -9.967750 1.192129 -0.103963 0.000000 0.000000 0.000000 10.930620 -5.012400 -0.467424 66.120735 14.520701 0.208479 0.000010 19.059120 -0.000003 7.252440 2.248922 32.811703 15.160434 -1.819990 -0.242005 18.364477 -2.188810 -0.353591 9.178870 -1.109373 -0.089051 0.000000 0.000000 0.000000 15.160428 -1.818400 -0.242007 18.364494 -2.190319 -0.354090 9.178870 -1.109373 -0.089051 0.000000 0.000000 0.000000 15.160428 -1.818400 -0.242007 18.364494 -2.190319 -0.354090 9.178876 -1.111395 -0.089052 0.000000 0.000000 0.000000 15.160428 -1.818400 -0.242007 18.364494 -2.190319 -0.354090 9.178870 -1.109373 -0.089051 0.000000 0.000000 0.000000 -6.488739 -3.762505 -1.439569 -1.035025 -13.381539 21.229565 -1.531958 -2.242201 7.038986 0.000000 0.000000 0.000000 1.853737 8.938404 -21.692404 5.035638 3.662710 51.038994 2.820150 -0.185667 3.179225 -0.000006 -0.000006 -8.838160 0.000000 0.000000 0.000000 2.056187 -4.986453 -8.107518 -4.638799 -9.004871 22.912575 0.068967 -8.311652 -12.128690 0.000001 -0.000000 -0.000002 0.000000 0.000000 0.000000 
-0.697722 104.067184 5.231377 1.266260 -6.936216 -2.893605 -0.398750 2.374544 1.708875 -1.525944 4.812293 3.247305 -1.495447 4.814533 3.257989 1.541117 -0.862703 -3.343602 1.084338 -2.721347 -5.928638 0.000000 0.000000 0.000000 0.000000 0.000000 0.000000 0.000000 0.000000 0.000000 -11.249165 0.520505 0.669261 -68.186913 -1.580997 -16.906345 -0.000203 -31.615229 0.000003 -10.434669 -1.869812 36.687687 1.320696 12.942353 -1.402549 3.383142 19.215214 5.713179 3.116631 7.299087 0.343609 0.000000 0.000000 0.000000 -12.286866 1.465541 -0.157748 -10.969708 1.310536 -0.125855 -9.567972 1.144790 -0.095810 0.000000 0.000000 0.000000 -12.270868 1.463664 -0.157337 -10.985714 1.312423 -0.126217 -9.567973 1.144784 -0.095813 0.000000 0.000000 0.000000 -12.286866 1.465541 -0.157748 -10.969708 1.310536 -0.125855 -9.567972 1.144790 -0.095810 0.000000 0.000000 0.000000 -11.787759 5.521355 -0.127311 -11.487651 -2.666431 0.663557 -9.567961 1.144797 -0.095807 0.000000 0.000000 0.000000 10.758101 -4.950344 -0.442350 65.912132 16.792576 1.360618 0.000008 21.340843 -0.000001 7.964179 1.635296 31.648586 16.428782 -1.967984 -0.283893 20.027224 -2.379125 -0.419868 10.009231 -1.208726 -0.105838 0.000000 0.000000 0.000000 16.428776 -1.966391 -0.283896 20.027243 -2.380623 -0.420412 10.009231 -1.208726 -0.105838 0.000000 0.000000 0.000000 16.428776 -1.966391 -0.283896 20.027243 -2.380623 -0.420412 10.009232 -1.210749 -0.105840 0.000000 0.000000 0.000000 16.428776 -1.966391 -0.283896 20.027243 -2.380623 -0.420412 10.009231 -1.208726 -0.105838 0.000000 0.000000 0.000000 -6.488739 -3.762505 -1.439569 -1.239326 -13.783398 21.320686 -1.583583 -2.459324 7.070881 0.000000 0.000000 0.000000 1.392171 9.185804 -23.426556 4.796865 4.419041 44.472904 1.418050 -0.093826 1.693858 0.000003 0.000008 -8.847583 0.000000 0.000000 0.000000 1.250621 -5.486197 -5.885303 -4.371700 -9.081958 21.649572 0.046749 -7.105155 -12.901379 -0.000000 -0.000000 0.000003 0.000000 0.000000 0.000000 
-0.707285 104.383804 8.407610 1.447613 -7.897867 -2.556808 -0.423387 2.580590 1.756854 -1.557645 5.238893 3.330166 -1.524827 5.243142 3.339097 1.449019 -0.890392 -3.525223 1.107757 -2.978889 -6.267751 0.000000 0.000000 0.000000 0.000000 0.000000 0.000000 0.000000 0.000000 0.000000 -11.317643 0.520506 0.668911 -69.427078 1.205241 -18.158997 -0.000203 -30.553591 0.000009 -11.620640 -2.803728 34.445602 1.464721 11.436420 -1.492301 3.386385 19.231176 5.715840 3.117513 7.307113 0.344855 0.000000 0.000000 0.000000 -10.715757 1.280564 -0.120105 -10.167983 1.215839 -0.108180 -9.167154 1.097263 -0.087973 0.000000 0.000000 0.000000 -10.699766 1.278681 -0.119752 -10.183949 1.217729 -0.108521 -9.167133 1.097273 -0.087965 0.000000 0.000000 0.000000 -10.715757 1.280564 -0.120105 -10.167983 1.215839 -0.108180 -9.167154 1.097263 -0.087973 0.000000 0.000000 0.000000 -10.214108 5.336066 -0.091143 -10.686530 -2.771788 0.625566 -9.167144 1.097269 -0.087973 0.000000 0.000000 0.000000 10.664966 -4.964726 -0.437871 66.074196 18.346682 2.686892 0.000018 24.429197 0.000005 8.301916 0.639685 30.579103 17.663122 -2.111073 -0.327788 21.879688 -2.588763 -0.500154 10.934204 -1.319093 -0.126252 0.000000 0.000000 0.000000 17.663111 -2.109481 -0.327789 21.879717 -2.590241 -0.500746 10.934204 -1.319093 -0.126252 0.000000 0.000000 0.000000 17.663111 -2.109481 -0.327789 21.879717 -2.590241 -0.500746 10.934208 -1.321115 -0.126252 0.000000 0.000000 0.000000 17.663111 -2.109481 -0.327789 21.879717 -2.590241 -0.500746 10.934204 -1.319093 -0.126252 0.000000 0.000000 0.000000 -6.488739 -3.762505 -1.439569 -1.447955 -14.191398 21.414961 -1.636184 -2.679936 7.103493 0.000000 0.000000 0.000000 1.177682 9.554621 -24.013424 4.391868 5.515069 35.708771 -0.138152 -0.013524 0.820023 0.000002 -0.000003 -10.094141 0.000000 0.000000 0.000000 0.467037 -5.974955 -3.345229 -3.965880 -9.075240 19.706100 0.070465 -6.130184 -13.180697 0.000000 0.000010 -0.000002 0.000000 0.000000 0.000000 
-0.651755 104.546822 11.726811 1.510150 -8.477905 -2.212775 -0.427013 2.714419 1.735801 -1.547315 5.490932 3.302776 -1.514849 5.497023 3.308428 1.434579 -0.924986 -3.761049 1.164314 -3.186609 -6.618738 0.000000 0.000000 0.000000 0.000000 0.000000 0.000000 0.000000 0.000000 0.000000 -11.397058 0.520510 0.669531 -70.646980 4.019229 -19.259516 -0.000193 -28.845078 0.000006 -12.907267 -3.810135 32.088245 1.453871 9.607986 -1.649652 3.421608 19.403072 5.744700 3.127195 7.393708 0.358304 0.000000 0.000000 0.000000 -8.957090 1.072342 -0.083989 -9.358411 1.119955 -0.091680 -8.762369 1.049217 -0.080390 0.000000 0.000000 0.000000 -8.941113 1.070442 -0.083692 -9.374370 1.121857 -0.091992 -8.762389 1.049211 -0.080394 0.000000 0.000000 0.000000 -8.957090 1.072342 -0.083989 -9.358411 1.119955 -0.091680 -8.762369 1.049217 -0.080390 0.000000 0.000000 0.000000 -8.453069 5.127526 -0.056719 -9.877385 -2.877626 0.585687 -8.762375 1.049214 -0.080384 0.000000 0.000000 0.000000 10.683940 -5.100091 -0.471386 66.557251 19.311405 4.244488 -0.000005 27.565443 0.000010 8.355316 -0.330353 29.488571 18.836426 -2.246134 -0.372362 24.112560 -2.837733 -0.605876 12.048782 -1.451605 -0.153194 0.000000 0.000000 0.000000 18.836414 -2.244538 -0.372364 24.112593 -2.839191 -0.606526 12.048782 -1.451605 -0.153194 0.000000 0.000000 0.000000 18.836414 -2.244538 -0.372364 24.112593 -2.839191 -0.606526 12.048790 -1.453626 -0.153196 0.000000 0.000000 0.000000 18.836414 -2.244538 -0.372364 24.112593 -2.839191 -0.606526 12.048782 -1.451605 -0.153194 0.000000 0.000000 0.000000 -6.488739 -3.762505 -1.439569 -1.665206 -14.613605 21.514425 -1.690797 -2.908397 7.137470 0.000000 0.000000 0.000000 1.000821 10.011412 -23.379257 3.736563 7.183116 24.710730 -1.644915 0.054411 0.640996 -0.000000 0.000004 -10.701292 0.000000 0.000000 0.000000 -0.290655 -6.546493 -0.539014 -3.487692 -8.996246 17.350767 0.221944 -5.292605 -13.237509 0.000001 0.000000 0.000003 0.000000 0.000000 0.000000 
